700 0 1 0           
15 SolidWorks 2011 12 ACIS 19.0 NT 24 Wed May 08 15:52:58 2013 
1 9.9999999999999995e-007 1e-010 
-0 body $1 -1 $-1 $2 $-1 $-1 #
-1 name_attrib-gen-attrib $-1 -1 $-1 $-1 $0 keep keep_kept ignore copy @14 accordo motore #
-2 lump $3 -1 $-1 $-1 $4 $0 #
-3 rgb_color-st-attrib $-1 -1 $-1 $-1 $2 0.792156862745098 0.81960784313725488 0.93333333333333335 #
-4 shell $-1 -1 $-1 $-1 $-1 $5 $-1 $2 #
-5 face $6 -1 $-1 $7 $8 $4 $-1 $9 reversed single #
-6 integer_attrib-name_attrib-gen-attrib $-1 -1 $-1 $-1 $5 copy keep_kept ignore copy @18 Taglio-Estrusione3 0 #
-7 face $10 -1 $-1 $11 $12 $4 $-1 $13 forward single #
-8 loop $-1 -1 $-1 $-1 $14 $5 #
-9 cone-surface $-1 -1 $-1 1.9998869195857719e-015 8 22.5 0 1 0 0 0 3.4999999999999996 1 I I 0 1 3.4999999999999996 forward I I I I #
-10 integer_attrib-name_attrib-gen-attrib $-1 -1 $-1 $-1 $7 copy keep_kept ignore copy @18 Taglio-Estrusione3 0 #
-11 face $15 -1 $-1 $16 $17 $4 $-1 $18 forward single #
-12 loop $-1 -1 $-1 $19 $20 $7 #
-13 cone-surface $-1 -1 $-1 0 0 50 -0 -0 -1 -12.5 0 0 1 I I 0 1 12.5 forward I I I I #
-14 coedge $-1 -1 $-1 $21 $22 $23 $24 reversed $8 $-1 #
-15 integer_attrib-name_attrib-gen-attrib $-1 -1 $-1 $-1 $11 copy keep_kept ignore copy @18 Taglio-Estrusione3 0 #
-16 face $25 -1 $-1 $26 $27 $4 $-1 $28 forward single #
-17 loop $-1 -1 $-1 $-1 $29 $11 #
-18 cone-surface $-1 -1 $-1 0 0 50 -0 -0 -1 -12.5 0 0 1 I I 0 1 12.5 forward I I I I #
-19 loop $-1 -1 $-1 $-1 $30 $7 #
-20 coedge $-1 -1 $-1 $31 $32 $33 $34 forward $12 $-1 #
-21 coedge $-1 -1 $-1 $35 $14 $36 $37 forward $8 $-1 #
-22 coedge $-1 -1 $-1 $14 $35 $38 $39 reversed $8 $-1 #
-23 coedge $-1 -1 $-1 $40 $41 $14 $24 forward $42 $-1 #
-24 edge $-1 -1 $-1 $43 0 $44 1.5707963267948966 $23 $45 forward @7 unknown #
-25 integer_attrib-name_attrib-gen-attrib $-1 -1 $-1 $-1 $16 copy keep_kept ignore copy @18 Taglio-Estrusione3 0 #
-26 face $46 -1 $-1 $47 $48 $4 $-1 $49 reversed single #
-27 loop $-1 -1 $-1 $50 $51 $16 #
-28 plane-surface $-1 -1 $-1 0 0 50 0 0 1 1000 0 0 forward_v I I I I #
-29 coedge $-1 -1 $-1 $52 $53 $54 $55 reversed $17 $-1 #
-30 coedge $-1 -1 $-1 $54 $56 $57 $58 reversed $19 $-1 #
-31 tcoedge-coedge $-1 -1 $-1 $59 $20 $60 $61 forward $12 $62 5.2759554800502027e-018 0.010994050257036984 #
-32 tcoedge-coedge $-1 -1 $-1 $20 $63 $64 $65 forward $12 $66 0.0055003280608092705 0.010994050257036996 #
-33 coedge $-1 -1 $-1 $67 $68 $20 $34 reversed $69 $-1 #
-34 edge $-1 -1 $-1 $70 0.0275 $71 0.042499999999999996 $20 $72 forward @7 unknown #
-35 tcoedge-coedge $-1 -1 $-1 $22 $21 $63 $73 reversed $8 $74 -0.0055003280608092705 -0 #
-36 coedge $-1 -1 $-1 $75 $64 $21 $37 reversed $76 $-1 #
-37 edge $-1 -1 $-1 $43 0 $77 0.0044999999999999997 $21 $78 forward @7 unknown #
-38 coedge $-1 -1 $-1 $79 $80 $22 $39 forward $81 $-1 #
-39 edge $-1 -1 $-1 $44 0 $82 0.0040000000000000001 $38 $83 forward @7 unknown #
-40 coedge $-1 -1 $-1 $84 $23 $80 $85 forward $42 $-1 #
-41 coedge $-1 -1 $-1 $23 $86 $75 $87 forward $42 $-1 #
-42 loop $-1 -1 $-1 $-1 $84 $88 #
-43 vertex $-1 -1 $-1 $37 $89 #
-44 vertex $-1 -1 $-1 $24 $90 #
-45 ellipse-curve $-1 -1 $-1 1.9998869195857719e-015 8 22.5 0 1 0 0 0 3.4999999999999996 1 I I #
-46 integer_attrib-name_attrib-gen-attrib $-1 -1 $-1 $-1 $26 copy keep_kept ignore copy @18 Taglio-Estrusione3 0 #
-47 face $91 -1 $-1 $92 $93 $4 $-1 $94 reversed single #
-48 loop $-1 -1 $-1 $-1 $95 $26 #
-49 plane-surface $-1 -1 $-1 0 0 0 0 0 1 1000 0 0 forward_v I I I I #
-50 loop $-1 -1 $-1 $-1 $96 $16 #
-51 coedge $-1 -1 $-1 $97 $98 $99 $100 reversed $27 $-1 #
-52 coedge $-1 -1 $-1 $101 $29 $96 $102 reversed $17 $-1 #
-53 coedge $-1 -1 $-1 $29 $101 $95 $103 forward $17 $-1 #
-54 coedge $-1 -1 $-1 $104 $30 $29 $55 forward $19 $-1 #
-55 edge $-1 -1 $-1 $105 -0 $106 0.050000000000000003 $54 $107 forward @7 unknown #
-56 coedge $-1 -1 $-1 $30 $104 $101 $108 reversed $19 $-1 #
-57 coedge $-1 -1 $-1 $96 $96 $30 $58 forward $50 $-1 #
-58 edge $-1 -1 $-1 $105 1.224646799147353e-016 $109 3.1415926535897931 $57 $110 forward @7 unknown #
-59 coedge $-1 -1 $-1 $63 $31 $79 $111 forward $12 $-1 #
-60 tcoedge-coedge $-1 -1 $-1 $112 $113 $31 $61 reversed $114 $115 -0.010994050257036984 -5.2759554800502027e-018 #
-61 tedge-edge $-1 -1 $-1 $71 5.2759554800502027e-018 $116 0.010994050257036984 $31 $117 forward @7 unknown 9.8019190181775938e-005 #
-62 pcurve $-1 -1 $-1 0 forward { exppc nubs 5 open 16 
	5.2759554800502027e-018 5 0.00068712814106481647 4 0.0013742562821296275 4 0.0020613844231944386 4 0.0027485125642592498 4 
	0.0034356407053240611 4 0.0041227688463888719 4 0.0048098969874536832 4 0.0054970251285184945 4 0.0061841532695833057 4 
	0.006871281410648117 4 0.0082455376927777404 4 0.0089326658338425499 4 0.0096197939749073612 4 0.010306922115972172 4 
	0.010994050257036984 5 
	3.3999999999999995 1.2870022175865694 
	3.4111569753747721 1.2870022175865687 
	3.4222148570801658 1.2875757197897257 
	3.4331753150987332 1.2887130292917792 
	3.4440400194130265 1.2904044681884801 
	3.4655812605981704 1.2948762860394232 
	3.4763149943755201 1.2976855233528204 
	3.4869339659158016 1.3010418116525415 
	3.4973602997971729 1.3049190034611062 
	3.5176719413984041 1.3136632315358268 
	3.5275622253520087 1.3185143100912549 
	3.5371893268491643 1.3238400563029773 
	3.5465556002804353 1.3296365008431226 
	3.5647711997923328 1.3421635319533365 
	3.5736143370548099 1.3489082809006792 
	3.5821353937587355 1.3560791756659578 
	3.5902769518390283 1.3636214598780279 
	3.6056862346221878 1.3793406524887959 
	3.6130062950892725 1.3875491259191377 
	3.6199379642560126 1.3961107567478885 
	3.6264774317465585 1.4050304984718618 
	3.6387643426235639 1.4235973761185943 
	3.6444278361725262 1.4331244316167859 
	3.6496076563519022 1.4428772601671749 
	3.6543000916816473 1.4528384255212459 
	3.6627027696817835 1.4731438018428926 
	3.6664332689378649 1.4835591998571851 
	3.6696686050810188 1.494181576443689 
	3.6723844547423043 1.5049553077376299 
	3.6767285343632565 1.5266960200747333 
	3.6783563389969363 1.5375993069592133 
	3.6794424617491233 1.5485379442455871 
	3.6799894559151221 1.5595144721392245 
	3.6800102936653514 1.5815485874416606 
	3.6794652348233887 1.5926539657261445 
	3.6783745712766476 1.6037548841643945 
	3.6767481760374277 1.6147576925352165 
	3.6724436681986288 1.636380905997185 
	3.6697745916222031 1.6470530211395891 
	3.6665866119088668 1.6575878352187032 
	3.6628776485787355 1.6679871655824545 
	3.6501815662983037 1.6987830031200151 
	3.6397673284349672 1.7183876650057592 
	3.6275266798025276 1.7369108491143523 
	3.6135833926415977 1.7541834977886328 
	3.5903001624683846 1.7779537274829036 
	3.5822118108138974 1.7854580955467061 
	3.5737964312549653 1.7925450627737278 
	3.5650542708172237 1.7992157489040879 
	3.5469168822353971 1.8117257456208002 
	3.5374669583439395 1.8175808370968336 
	3.5277142349976538 1.8229874836839859 
	3.5177371423422561 1.8278967199105667 
	3.49749107870467 1.8366219376788164 
	3.4871948512427271 1.8404692929351432 
	3.4767234232830257 1.8437956171593886 
	3.4660747899709534 1.8465949844015026 
	3.4444191029328488 1.8511276723402417 
	3.4334237674396246 1.852846395227731 
	3.4223176590607371 1.8540048665036031 
	3.4111574968846927 1.8545904360032242 
	3.3999999999999999 1.8545904360032242 
	2.3349552291662695e-007 
	cone 0 0 50 -0 -0 -1 -12.5 0 0 1 I I 0 1 12.5 forward I I I I 
	} 0 0 #
-63 tcoedge-coedge $-1 -1 $-1 $32 $59 $35 $73 forward $12 $118 0 0.0055003280608092705 #
-64 tcoedge-coedge $-1 -1 $-1 $36 $119 $32 $65 reversed $76 $120 -0.010994050257036996 -0.0055003280608092705 #
-65 tedge-edge $-1 -1 $-1 $77 0.0055003280608092705 $70 0.010994050257036996 $32 $121 forward @7 unknown 0.00010720463863504773 #
-66 pcurve $-1 -1 $-1 0 forward { exppc nubs 5 open 11 
	0.0055003280608092705 5 0.0061870433353377365 4 0.0068737586098662016 4 0.0073315687928851786 3 0.0075604738843946676 4 
	0.0082471891589231336 4 0.0089339044334515987 4 0.0091628095249610877 3 0.0096206197079800639 4 0.010307334982508531 4 
	0.010994050257036996 5 
	1.9199999999999999 1.5707963267948966 
	1.9199999999999997 1.5597851024412484 
	1.920554961630182 1.5486865289859986 
	1.9216548664791904 1.5375932436521618 
	1.9232896961356669 1.526598753422125 
	1.9276091682408429 1.504993268121114 
	1.9302850089454202 1.4943297890532261 
	1.9334791117007175 1.4838034117008885 
	1.9371936339054672 1.4734123464347249 
	1.9442554656603552 1.4563170809338821 
	1.947300817345615 1.4495764587939139 
	1.9505590457816511 1.4429433466399451 
	1.9557540902130763 1.4331702388459615 
	1.96139326728737 1.423685164346645 
	1.9633213732711652 1.4205567650704209 
	1.9652968917682581 1.4174629535509564 
	1.973384744693556 1.4052312630991024 
	1.979918907012481 1.3963074981819563 
	1.9868914435872813 1.3876764775657158 
	1.9942724560488816 1.3793817253698901 
	2.0097916360075292 1.3635525617343747 
	2.017878061758537 1.3560564497518124 
	2.0262911048344461 1.3489772084808027 
	2.0350305467884722 1.3423137583960438 
	2.0471180433022851 1.3339828064972743 
	2.0501822115811228 1.3319444694887836 
	2.053285770167482 1.3299523281700487 
	2.0627059053205339 1.3241198918017933 
	2.0724282840697352 1.3187356601166389 
	2.0790209696468067 1.3153598119055663 
	2.0857015242252412 1.3122121117119565 
	2.1025645063174649 1.3049496304728094 
	2.1128552804346832 1.3011067675382599 
	2.1233210466370971 1.2977843156968021 
	2.133963812148016 1.2949882082668942 
	2.1556073562334861 1.2904608285436547 
	2.166596284570323 1.2887441476667865 
	2.1776957684667186 1.2875870720635532 
	2.1888492071881256 1.287002217586569 
	2.2000000000000002 1.287002217586569 
	1.1079062667290764e-008 
	cone 0 0 50 -0 -0 -1 -12.5 0 0 1 I I 0 1 12.5 forward I I I I 
	} 0 0 #
-67 coedge $-1 -1 $-1 $122 $33 $119 $123 reversed $69 $-1 #
-68 coedge $-1 -1 $-1 $33 $122 $112 $124 forward $69 $-1 #
-69 loop $-1 -1 $-1 $-1 $67 $125 #
-70 tvertex-vertex $-1 -1 $-1 $65 $126 8.8817841970012523e-015 #
-71 tvertex-vertex $-1 -1 $-1 $124 $127 1.5177199488856151e-014 #
-72 straight-curve $-1 -1 $-1 -3.4999999999999898 12.000000000000004 50 -0 -0 -1000 I I #
-73 tedge-edge $-1 -1 $-1 $82 0 $77 0.0055003280608092705 $63 $128 forward @7 unknown 8.4310591991975579e-005 #
-74 pcurve $-1 -1 $-1 0 reversed { exppc nubs 5 open 11 
	0 5 0.00068754100760115881 4 0.0013750820152023176 4 0.0018334426869364236 3 0.0020626230228034765 4 
	0.0027501640304046352 4 0.0034377050380057939 4 0.0036668853738728471 3 0.0041252460456069531 4 0.0048127870532081113 4 
	0.0055003280608092705 5 
	1.142857142857143 1.5707963267948966 
	1.1428571428571432 1.5309260441726209 
	1.143436603222189 1.4914100891251545 
	1.1445750859744406 1.4521143562486767 
	1.1462521531360568 1.412903005138223 
	1.150642580322339 1.3344049221500136 
	1.1533828641980883 1.294898115299822 
	1.1566124891497305 1.2552895284775636 
	1.1602757259705492 1.2157554409376998 
	1.1670109251093495 1.1502476388340348 
	1.1698665980231915 1.1241479902897022 
	1.1728698217412301 1.0981135934881801 
	1.1775749198433954 1.0591006646674388 
	1.1825488162114393 1.0200587101865028 
	1.1842348928346742 1.0070366652432861 
	1.185947325318365 0.99400177376175503 
	1.1928954574678867 0.94179212523494216 
	1.1983322680645556 0.9024697313257547 
	1.203902623056665 0.86312148467083394 
	1.2095143553551251 0.82390788900174994 
	1.2206362403865729 0.74603710224661213 
	1.2261760478509494 0.70717034558639202 
	1.2316433264319309 0.66824691734778408 
	1.2369866822974713 0.62912868697874169 
	1.2438774013882077 0.57653123825255215 
	1.2455724961554853 0.56340369103283305 
	1.2472382980638506 0.55029536696489056 
	1.2521427016516917 0.51102035730118989 
	1.2567527281462152 0.47187246021313389 
	1.2596815820508214 0.44581011004187193 
	1.2624522760356365 0.4197643819845156 
	1.268949454128081 0.35464508799622846 
	1.2724806461318663 0.31530791485989973 
	1.2755940085347157 0.2758004293400122 
	1.2782388265873723 0.23622752629977539 
	1.2824899444937912 0.15712284844148655 
	1.2840949145459026 0.11780695906935743 
	1.2851720951387795 0.078601079929993628 
	1.285714285714286 0.039373088131281216 
	1.2857142857142858 1.1477388618606019e-024 
	3.3843569724467657e-008 
	cone 1.9998869195857719e-015 8 22.5 0 1 0 0 0 3.4999999999999996 1 I I 0 1 3.4999999999999996 forward I I I I 
	} 0 0 #
-75 coedge $-1 -1 $-1 $119 $36 $41 $87 reversed $76 $-1 #
-76 loop $-1 -1 $-1 $-1 $36 $129 #
-77 tvertex-vertex $-1 -1 $-1 $37 $130 2.7652658947418437e-015 #
-78 straight-curve $-1 -1 $-1 1.9998869195857719e-015 8 26 0 1000 0 I I #
-79 coedge $-1 -1 $-1 $131 $38 $59 $111 reversed $81 $-1 #
-80 coedge $-1 -1 $-1 $38 $131 $40 $85 reversed $81 $-1 #
-81 loop $-1 -1 $-1 $-1 $131 $132 #
-82 tvertex-vertex $-1 -1 $-1 $73 $133 8.7475429582505128e-015 #
-83 straight-curve $-1 -1 $-1 3.5000000000000027 8 22.5 0 1000 0 I I #
-84 coedge $-1 -1 $-1 $86 $40 $134 $135 forward $42 $-1 #
-85 edge $-1 -1 $-1 $44 -0.015000000000000001 $136 -0 $40 $137 forward @7 unknown #
-86 coedge $-1 -1 $-1 $41 $84 $122 $138 forward $42 $-1 #
-87 edge $-1 -1 $-1 $139 -1.5707963267948966 $43 0 $41 $140 forward @7 unknown #
-88 face $141 -1 $-1 $-1 $42 $4 $-1 $142 forward single #
-89 point $-1 -1 $-1 1.9998869195857719e-015 8 26.000000000000004 #
-90 point $-1 -1 $-1 3.5000000000000027 8 22.5 #
-91 integer_attrib-name_attrib-gen-attrib $-1 -1 $-1 $-1 $47 copy keep_kept ignore copy @18 Taglio-Estrusione3 0 #
-92 face $143 -1 $-1 $144 $145 $4 $-1 $146 reversed single #
-93 loop $-1 -1 $-1 $-1 $99 $47 #
-94 plane-surface $-1 -1 $-1 3.1754264805429444 5.5000000000000018 35 0 1 0 0 0 1000 forward_v I I I I #
-95 coedge $-1 -1 $-1 $147 $147 $53 $103 reversed $48 $-1 #
-96 coedge $-1 -1 $-1 $57 $57 $52 $102 forward $50 $-1 #
-97 coedge $-1 -1 $-1 $148 $51 $149 $150 reversed $27 $-1 #
-98 coedge $-1 -1 $-1 $51 $151 $152 $153 reversed $27 $-1 #
-99 coedge $-1 -1 $-1 $154 $155 $51 $100 forward $93 $-1 #
-100 edge $-1 -1 $-1 $156 0 $157 0.0063508529610858877 $99 $158 forward @7 unknown #
-101 coedge $-1 -1 $-1 $53 $52 $56 $108 forward $17 $-1 #
-102 edge $-1 -1 $-1 $109 -3.1415926535897931 $105 1.224646799147353e-016 $96 $159 forward @7 unknown #
-103 edge $-1 -1 $-1 $160 -3.1415926535897931 $106 1.224646799147353e-016 $53 $161 forward @7 unknown #
-104 coedge $-1 -1 $-1 $56 $54 $147 $162 forward $19 $-1 #
-105 vertex $-1 -1 $-1 $55 $163 #
-106 vertex $-1 -1 $-1 $55 $164 #
-107 straight-curve $-1 -1 $-1 12.5 1.5308084989341915e-015 50 -0 -0 -1000 I I #
-108 edge $-1 -1 $-1 $109 -0 $160 0.050000000000000003 $101 $165 forward @7 unknown #
-109 vertex $-1 -1 $-1 $58 $166 #
-110 ellipse-curve $-1 -1 $-1 0 0 50 0 0 1 12.5 0 0 1 I I #
-111 edge $-1 -1 $-1 $116 -0.042500000000000003 $82 -0.0275 $59 $167 forward @7 unknown #
-112 coedge $-1 -1 $-1 $134 $60 $68 $124 reversed $114 $-1 #
-113 coedge $-1 -1 $-1 $60 $134 $131 $168 forward $114 $-1 #
-114 loop $-1 -1 $-1 $-1 $112 $169 #
-115 pcurve $-1 -1 $-1 0 reversed { exppc nubs 5 open 16 
	5.2759554800502027e-018 5 0.00068712814106481647 4 0.0013742562821296275 4 0.0020613844231944386 4 0.0027485125642592498 4 
	0.0034356407053240611 4 0.0041227688463888719 4 0.0048098969874536832 4 0.0054970251285184945 4 0.0061841532695833057 4 
	0.006871281410648117 4 0.0082455376927777404 4 0.0089326658338425499 4 0.0096197939749073612 4 0.010306922115972172 4 
	0.010994050257036984 5 
	1.1428571428571435 4.7123889803846915 
	1.1428571428571419 4.6725426397605032 
	1.1434359074320017 4.6330502050983826 
	1.1445730354709474 4.5937778041590782 
	1.1462481258632025 4.5545898426534732 
	1.15063342913278 4.4761390809830521 
	1.153370499668593 4.4366564776994251 
	1.1565964250268719 4.3970721144432705 
	1.1602556411290563 4.3575616478162065 
	1.1683295266641194 4.2789972326135395 
	1.1727297937408392 4.2399480483918719 
	1.177446073723204 4.2010030858174563 
	1.1824310552076718 4.1620272936847797 
	1.1928437983737272 4.083762140888771 
	1.198276219857477 4.04446285917665 
	1.2038425638727075 4.0051368857582768 
	1.2094507030501771 3.9659454484739944 
	1.2205663169911127 3.8881200819768642 
	1.2261033764729607 3.8492768846243619 
	1.2315683935578656 3.8103780821738846 
	1.2369100733375054 3.7712858425642075 
	1.2472441684696083 3.6924450290126174 
	1.2521645900076048 3.6532145931987747 
	1.2567918627263839 3.6141077294223276 
	1.2610794638347855 3.5750603463833865 
	1.2688822772485093 3.4969660150479474 
	1.2724173845419853 3.4576571649569838 
	1.2755356634048898 3.4181786711997506 
	1.2781865848200349 3.3786317866849536 
	1.2824526547204353 3.2995665550067206 
	1.2840658075053188 3.2602717923663227 
	1.2851518968885334 3.2210885785227652 
	1.2857037416337274 3.1818850079911805 
	1.2857245793753698 3.1031917066229031 
	1.2851747762559089 3.0635313530237092 
	1.2840841818382451 3.0237629967810711 
	1.2824722268144595 2.9841187774111062 
	1.2782444569388036 2.9054912954925709 
	1.2756373690405722 2.866332487001773 
	1.2725628696352105 2.8272044346521867 
	1.2690467501759903 2.7879740634106756 
	1.257250905996574 2.6695950571737703 
	1.2478369350326695 2.5912346704006062 
	1.2373500293550377 2.513114741370349 
	1.2262673290942401 2.4349818621851091 
	1.2094652970241435 2.3173413872258628 
	1.2038892745465219 2.2783781636472185 
	1.1983891714153847 2.2395350638068914 
	1.1930162520981393 2.2006762132982023 
	1.182627310026247 2.1226747774451939 
	1.1775940069574007 2.0833399889726816 
	1.1728089165463567 2.0438601368277065 
	1.1683590834838193 2.0044464744664126 
	1.1603040214371634 1.9261233595088472 
	1.1566744362609178 1.8870819643476497 
	1.1534784565363945 1.848037485962885 
	1.1507517418682365 1.8088564205396662 
	1.1463081618539313 1.7299637330422599 
	1.1446063191527489 1.6903029906216596 
	1.1434480905547488 1.6505022520118144 
	1.1428571428571423 1.6106445299545138 
	1.1428571428571415 1.570796326794897 
	2.2264271692939993e-007 
	cone -2.5925385772168025e-015 8 7.5 0 1 0 0 0 3.5000000000000013 1 I I 0 1 3.5000000000000013 forward I I I I 
	} 0 0 #
-116 tvertex-vertex $-1 -1 $-1 $111 $170 1.3000517256771047e-014 #
-117 intcurve-curve $-1 -1 $-1 forward { exactcur full nubs 3 open 16 
	5.2759554800502027e-018 3 0.00068712814106481647 2 0.0013742562821296275 2 0.0020613844231944386 2 0.0027485125642592498 2 
	0.0034356407053240611 2 0.0041227688463888719 2 0.0048098969874536832 2 0.0054970251285184945 2 0.0061841532695833057 2 
	0.006871281410648117 2 0.0082455376927777404 2 0.0089326658338425499 2 0.0096197939749073612 2 0.010306922115972172 2 
	0.010994050257036984 3 
	-3.4999999999999898 12.000000000000004 7.5000000000000071 
	-3.5000000000000018 11.999999999999995 7.2675630130255744 
	-3.477077818555196 12.006752253373369 7.0392549289419311 
	-3.3874958090534784 12.032333189112574 6.5904790709181107 
	-3.3196749613803616 12.051475210827459 6.3676280925404658 
	-3.1436970209715156 12.098572876448658 5.9444688925148226 
	-3.0361832640636801 12.126360492866455 5.7439533277941361 
	-2.7823703518013065 12.187101494668445 5.3644616712962634 
	-2.6354774449522478 12.220109244411196 5.1857434469419799 
	-2.3144776521843773 12.28495032573332 4.8647167222928163 
	-2.1390987130710761 12.317128812360483 4.7202275651555397 
	-1.7570149631801819 12.377411033964414 4.4642502552179355 
	-1.555242875264512 12.40467484110574 4.3562600123133173 
	-1.1346700340490332 12.450191252685798 4.1812042206438109 
	-0.91291095369344955 12.468675965319656 4.1132946474751684 
	-0.46066360263971862 12.493561373071993 4.0227929887053273 
	-0.23283198887061687 12.499938785019465 4.0002186250202643 
	0.22621206383663198 12.500060338512377 3.9997845052238197 
	0.45941584739828339 12.493585192038875 4.0227123502038227 
	0.90922388700742396 12.468923201097549 4.1123895968454676 
	1.127991546795853 12.450838171088847 4.1787624975423876 
	1.7658709551186016 12.382029080042255 4.4432642117180539 
	2.1503702923808001 12.318072146161104 4.7008563132399601 
	2.6357873392486444 12.220060292418873 5.1859236085152318 
	2.7798386661837351 12.187677314760696 5.3612491623604317 
	3.0333198941298085 12.127075152674657 5.7391114244818189 
	3.1433776638676716 12.098654364581135 5.9439271222318606 
	3.3189750044840336 12.051666502642306 6.3657201146815616 
	3.3857917691274095 12.032815273222186 6.5838330960376537 
	3.4765955208277379 12.006894389805405 7.0349932426648243 
	3.4999999999999982 12.000000000000002 7.2675521482355672 
	3.4999999999999978 11.999999999999996 7.4999999999999982 
	0 
	null_surface 
	null_surface 
	nullbs 
	nullbs 
	I I 
	0 
	14 0.00068712814106481647 0.0013742562821296275 0.0020613844231944386 0.0027485125642592498 0.0034356407053240611 0.0041227688463888719 0.0048098969874536832 0.0054970251285184945 0.0061841532695833057 0.006871281410648117 0.0082455376927777404 0.0089326658338425499 0.0096197939749073612 0.010306922115972172 
	0 
	F 1 F 0 } I I #
-118 pcurve $-1 -1 $-1 0 forward { exppc nubs 5 open 11 
	0 5 0.00068754100760115881 4 0.0013750820152023176 4 0.0018334426869364236 3 0.0020626230228034765 4 
	0.0027501640304046352 4 0.0034377050380057939 4 0.0036668853738728471 3 0.0041252460456069531 4 0.0048127870532081113 4 
	0.0055003280608092705 5 
	2.2000000000000002 1.8545904360032246 
	2.1888363208657631 1.8545904360032246 
	2.1777718534524726 1.8540162505651363 
	2.1668049258325031 1.8528775859286775 
	2.1559338660782301 1.8511841312726762 
	2.1343801384458261 1.8467069830698177 
	2.123640212786611 1.8438943547735676 
	2.1130153049291591 1.8405340525100107 
	2.1025834945182469 1.8366523261893812 
	2.0856491056522541 1.8293572140465493 
	2.0789934948380622 1.8262260645494861 
	2.0724553345319774 1.8228830767219022 
	2.0628232284988677 1.8175526425824702 
	2.0534522621005626 1.8117508325700404 
	2.0503575353714294 1.8097646626584367 
	2.0472916506012484 1.8077263971368644 
	2.035143132244293 1.7993654869830529 
	2.0262972945769908 1.7926133934064026 
	2.0177742833211649 1.7854349378753134 
	2.0096313737878759 1.7778848370621259 
	1.9942203087884958 1.7621494169248748 
	1.9868997829828858 1.753932437350429 
	1.979968125829215 1.7453618571117515 
	1.9734291992853423 1.7364326693085321 
	1.9652394206503885 1.7240414200622924 
	1.9632454840076712 1.7209167049390797 
	1.9613051738376779 1.71776571659466 
	1.955645478115982 1.7082358051202911 
	1.9504705528694621 1.6984806207579164 
	1.9472370039032636 1.6918819910506055 
	1.9442208037888378 1.6851930415287704 
	1.9372260447662697 1.6682566950869984 
	1.933500599588666 1.6578311724033432 
	1.9302710845582127 1.6471986711088442 
	1.9275620195861258 1.6364158282932935 
	1.9232338295811118 1.6146609313507221 
	1.9216144522060261 1.6037504916367358 
	1.9205373298738317 1.5928046291752949 
	1.9199999999999997 1.5818207914716553 
	1.9199999999999999 1.5707963267948966 
	1.096321644578069e-008 
	cone 0 0 50 -0 -0 -1 -12.5 0 0 1 I I 0 1 12.5 forward I I I I 
	} 0 0 #
-119 coedge $-1 -1 $-1 $64 $75 $67 $123 forward $76 $-1 #
-120 pcurve $-1 -1 $-1 0 reversed { exppc nubs 5 open 11 
	0.0055003280608092705 5 0.0061870433353377365 4 0.0068737586098662016 4 0.0073315687928851786 3 0.0075604738843946676 4 
	0.0082471891589231336 4 0.0089339044334515987 4 0.0091628095249610877 3 0.0096206197079800639 4 0.010307334982508531 4 
	0.010994050257036996 5 
	1.2857142857142858 1.1477388618606019e-024 
	1.2857142857142856 -0.039325801263029411 
	1.2851545947639367 -0.078963563603207262 
	1.2840548551939559 -0.11870786367480661 
	1.2824347093350603 -0.158326851669574 
	1.2781928897008741 -0.23690186623944354 
	1.2755796996618343 -0.27603625231636436 
	1.2724999717586711 -0.31514143571257369 
	1.2689794483492074 -0.35435026786759138 
	1.2624201540859727 -0.42008245311674147 
	1.2596241192053699 -0.44633706985171229 
	1.2566746991585753 -0.47254769669733165 
	1.2520488893527675 -0.51178546307087402 
	1.2471631569640493 -0.55088666306471956 
	1.2455080657152942 -0.56390414999101779 
	1.2438288271818272 -0.57690429033643553 
	1.2370247499136735 -0.62883119780652152 
	1.2316845463719264 -0.66792446207585476 
	1.2261829581745833 -0.70710937476375568 
	1.2205957462566812 -0.74632149019694949 
	1.2094015968498302 -0.82469649987071858 
	1.2038295163806902 -0.863635026958263 
	1.1983336030852745 -0.90245444221670224 
	1.1929650299030219 -0.94129035332420363 
	1.1860449497301542 -0.99326144403701044 
	1.1843328603301675 -1.0062912899335128 
	1.1826419198380287 -1.0193512064359893 
	1.177642199879013 -1.0585993513336209 
	1.172890748853755 -1.0979864946646942 
	1.1698592027021988 -1.1242475295316325 
	1.1669894905328677 -1.1504514112528907 
	1.160284160357465 -1.2156804837526025 
	1.1566585569499521 -1.2546983711651623 
	1.153466144627064 -1.2937197225612844 
	1.1507425197756971 -1.332877801022434 
	1.1463040377897975 -1.4117243710747462 
	1.1446041970121164 -1.4513615299749039 
	1.1434473631383502 -1.4911383570331767 
	1.1428571428571439 -1.5309720667524873 
	1.1428571428571441 -1.5707963267948966 
	1.5742910530747184e-008 
	cone 1.9998869195857719e-015 8 22.5 0 1 0 0 0 3.4999999999999996 1 I I 0 1 3.4999999999999996 forward I I I I 
	} 0 0 #
-121 intcurve-curve $-1 -1 $-1 forward { exactcur full nubs 3 open 9 
	0.0055003280608092705 3 0.0061870433353377365 2 0.0068737586098662016 2 0.0075604738843946676 2 0.0082471891589231336 2 
	0.0089339044334515987 2 0.0096206197079800639 2 0.010307334982508531 2 0.010994050257036996 3 
	1.9998869236028579e-015 12.5 26 
	-0.22940050736766954 12.499999999999998 26.000000000000004 
	-0.46244056063540689 12.493470272245927 25.976876598742397 
	-0.91187420367652805 12.468726324379842 25.886887596551233 
	-1.1304633877099313 12.450611081190754 25.820388734956101 
	-1.555371461732814 12.404696021348112 25.643842941083896 
	-1.7581443802730388 12.377215165574933 25.534887014462996 
	-2.1357197642252395 12.317679489478587 25.282141610547438 
	-2.313525718386706 12.285144952873043 25.136257549216676 
	-2.6367703081291212 12.219845747999745 24.81294130007818 
	-2.7806630482218404 12.187487744963095 24.637665018355431 
	-3.0338659274199928 12.126937043450503 24.259930752298775 
	-3.1437977585054497 12.098544410233382 24.055203312876159 
	-3.3191877807638561 12.051607099005562 23.63362876057057 
	-3.3859268440599628 12.032777048198488 23.415633781839261 
	-3.476624079559993 12.006885903280741 22.964726613391957 
	-3.4999999999999982 12.000000000000002 22.73230818358072 
	-3.4999999999999987 12.000000000000004 22.5 
	0 
	null_surface 
	null_surface 
	nullbs 
	nullbs 
	I I 
	0 
	7 0.0061870433353377365 0.0068737586098662016 0.0075604738843946676 0.0082471891589231336 0.0089339044334515987 0.0096206197079800639 0.010307334982508531 
	0 
	F 1 F 0 } I I #
-122 coedge $-1 -1 $-1 $68 $67 $86 $138 reversed $69 $-1 #
-123 edge $-1 -1 $-1 $139 0 $70 0.0040000000000000036 $119 $171 forward @7 unknown #
-124 edge $-1 -1 $-1 $172 0 $71 0.0040000000000000036 $68 $173 forward @7 unknown #
-125 face $174 -1 $-1 $88 $69 $4 $-1 $175 reversed single #
-126 point $-1 -1 $-1 -3.4999999999999987 12.000000000000004 22.5 #
-127 point $-1 -1 $-1 -3.4999999999999898 12.000000000000004 7.5000000000000071 #
-128 intcurve-curve $-1 -1 $-1 forward { exactcur full nubs 3 open 9 
	0 3 0.00068754100760115881 2 0.0013750820152023176 2 0.0020626230228034765 2 0.0027501640304046352 2 
	0.0034377050380057939 2 0.0041252460456069531 2 0.0048127870532081113 2 0.0055003280608092705 3 
	3.5000000000000027 12 22.5 
	3.5000000000000031 12.000000000000002 22.732576648629941 
	3.4770505318807032 12.006760370925535 22.961019475553773 
	3.3873615696357522 12.032371196178849 23.410055467895532 
	3.319457966381111 12.051535762102601 23.633034374191951 
	3.1432794183941795 12.098682156074203 24.056394095841771 
	3.0356437281673503 12.126497176090952 24.256997888022454 
	2.781536955742248 12.187293332399268 24.63663908667731 
	2.6344886877985578 12.220324711206247 24.815395056820801 
	2.3131513841579143 12.285202373889692 25.13645891097455 
	2.1375864043401105 12.317394629632361 25.28094889246476 
	1.7550827427834197 12.377688421676304 25.536879474807066 
	1.5531612299010198 12.404938892130593 25.644779259970267 
	1.1322022753552801 12.450419138777708 25.819648235534473 
	0.91020800254811451 12.468876255498314 25.887440630152533 
	0.4576599043183141 12.493674443285757 25.977611255256996 
	0.22967634743247572 12.500000000000002 26.000000000000004 
	1.9998869236028579e-015 12.5 26 
	0 
	null_surface 
	null_surface 
	nullbs 
	nullbs 
	I I 
	0 
	7 0.00068754100760115881 0.0013750820152023176 0.0020626230228034765 0.0027501640304046352 0.0034377050380057939 0.0041252460456069531 0.0048127870532081113 
	0 
	F 1 F 0 } I I #
-129 face $176 -1 $-1 $125 $76 $4 $-1 $177 reversed single #
-130 point $-1 -1 $-1 1.9998869236028579e-015 12.5 26 #
-131 coedge $-1 -1 $-1 $80 $79 $113 $168 reversed $81 $-1 #
-132 face $178 -1 $-1 $129 $81 $4 $-1 $179 reversed single #
-133 point $-1 -1 $-1 3.5000000000000027 12 22.5 #
-134 coedge $-1 -1 $-1 $113 $112 $84 $135 reversed $114 $-1 #
-135 edge $-1 -1 $-1 $136 1.570796326794897 $172 4.7123889803846897 $84 $180 forward @7 unknown #
-136 vertex $-1 -1 $-1 $168 $181 #
-137 straight-curve $-1 -1 $-1 3.4999999999999978 8 7.4999999999999982 -3.1803263726241465e-013 -0 -1000 I I #
-138 edge $-1 -1 $-1 $172 0 $139 0.014999999999999998 $86 $182 forward @7 unknown #
-139 vertex $-1 -1 $-1 $123 $183 #
-140 ellipse-curve $-1 -1 $-1 1.9998869195857719e-015 8 22.5 0 1 0 0 0 3.4999999999999996 1 I I #
-141 integer_attrib-name_attrib-gen-attrib $-1 -1 $-1 $-1 $88 copy keep_kept ignore copy @18 Taglio-Estrusione3 0 #
-142 plane-surface $-1 -1 $-1 -2.5925385772168025e-015 8 7.5 0 1 0 0 0 1000 forward_v I I I I #
-143 integer_attrib-name_attrib-gen-attrib $-1 -1 $-1 $-1 $92 copy keep_kept ignore copy @18 Taglio-Estrusione3 0 #
-144 face $184 -1 $-1 $185 $186 $4 $-1 $187 reversed single #
-145 loop $-1 -1 $-1 $-1 $149 $92 #
-146 plane-surface $-1 -1 $-1 6.3508529610858853 1.9436954784347182e-015 35 0.86602540378443871 0.49999999999999989 0 -499.99999999999989 866.02540378443871 0 forward_v I I I I #
-147 coedge $-1 -1 $-1 $95 $95 $104 $162 reversed $48 $-1 #
-148 coedge $-1 -1 $-1 $188 $97 $189 $190 reversed $27 $-1 #
-149 coedge $-1 -1 $-1 $191 $192 $97 $150 forward $145 $-1 #
-150 edge $-1 -1 $-1 $193 0 $156 0.0063508529610858833 $149 $194 forward @7 unknown #
-151 coedge $-1 -1 $-1 $98 $188 $195 $196 reversed $27 $-1 #
-152 coedge $-1 -1 $-1 $197 $198 $98 $153 forward $199 $-1 #
-153 edge $-1 -1 $-1 $157 6.6613381477509346e-019 $200 0.0063508529610858816 $152 $201 forward @7 unknown #
-154 coedge $-1 -1 $-1 $202 $99 $198 $203 reversed $93 $-1 #
-155 coedge $-1 -1 $-1 $99 $202 $191 $204 forward $93 $-1 #
-156 vertex $-1 -1 $-1 $204 $205 #
-157 vertex $-1 -1 $-1 $100 $206 #
-158 straight-curve $-1 -1 $-1 3.1754264805429444 5.5000000000000018 50 -1000 0 0 I I #
-159 ellipse-curve $-1 -1 $-1 0 0 50 0 0 1 12.5 0 0 1 I I #
-160 vertex $-1 -1 $-1 $162 $207 #
-161 ellipse-curve $-1 -1 $-1 0 0 0 0 0 1 12.5 0 0 1 I I #
-162 edge $-1 -1 $-1 $106 1.224646799147353e-016 $160 3.1415926535897931 $104 $208 forward @7 unknown #
-163 point $-1 -1 $-1 12.5 1.5308084989341915e-015 50 #
-164 point $-1 -1 $-1 12.5 1.5308084989341915e-015 0 #
-165 straight-curve $-1 -1 $-1 -12.5 0 50 -0 -0 -1000 I I #
-166 point $-1 -1 $-1 -12.5 0 50 #
-167 straight-curve $-1 -1 $-1 3.5000000000000107 11.999999999999996 50 0 0 1000 I I #
-168 edge $-1 -1 $-1 $136 0 $116 0.0039999999999999966 $113 $209 forward @7 unknown #
-169 face $210 -1 $-1 $132 $114 $4 $-1 $211 reversed single #
-170 point $-1 -1 $-1 3.4999999999999978 11.999999999999996 7.4999999999999982 #
-171 straight-curve $-1 -1 $-1 -3.4999999999999987 8 22.5 0 1000 0 I I #
-172 vertex $-1 -1 $-1 $124 $212 #
-173 straight-curve $-1 -1 $-1 -3.500000000000004 8 7.5000000000000018 0 1000 0 I I #
-174 integer_attrib-name_attrib-gen-attrib $-1 -1 $-1 $-1 $125 copy keep_kept ignore copy @18 Taglio-Estrusione3 0 #
-175 plane-surface $-1 -1 $-1 -3.500000000000004 8 7.5000000000000018 -1 0 3.180326372624147e-016 3.180326372624147e-013 0 1000 forward_v I I I I #
-176 integer_attrib-name_attrib-gen-attrib $-1 -1 $-1 $-1 $129 copy keep_kept ignore copy @18 Taglio-Estrusione3 0 #
-177 cone-surface $-1 -1 $-1 1.9998869195857719e-015 8 22.5 0 1 0 0 0 3.4999999999999996 1 I I 0 1 3.4999999999999996 forward I I I I #
-178 integer_attrib-name_attrib-gen-attrib $-1 -1 $-1 $-1 $132 copy keep_kept ignore copy @18 Taglio-Estrusione3 0 #
-179 plane-surface $-1 -1 $-1 3.4999999999999978 8 7.4999999999999982 1 0 -3.1803263726241465e-016 -3.1803263726241465e-013 0 -1000 forward_v I I I I #
-180 ellipse-curve $-1 -1 $-1 -2.5925385772168025e-015 8 7.5 0 1 0 0 0 3.5000000000000013 1 I I #
-181 point $-1 -1 $-1 3.4999999999999978 8 7.4999999999999982 #
-182 straight-curve $-1 -1 $-1 -3.500000000000004 8 7.5000000000000018 3.180326372624147e-013 0 1000 I I #
-183 point $-1 -1 $-1 -3.4999999999999987 8 22.5 #
-184 integer_attrib-name_attrib-gen-attrib $-1 -1 $-1 $-1 $144 copy keep_kept ignore copy @18 Taglio-Estrusione3 0 #
-185 face $213 -1 $-1 $214 $215 $4 $-1 $216 reversed single #
-186 loop $-1 -1 $-1 $-1 $189 $144 #
-187 plane-surface $-1 -1 $-1 3.1754264805429409 -5.5 35 0.8660254037844386 -0.50000000000000033 0 500.00000000000034 866.02540378443871 0 forward_v I I I I #
-188 coedge $-1 -1 $-1 $151 $148 $217 $218 reversed $27 $-1 #
-189 coedge $-1 -1 $-1 $219 $220 $148 $190 forward $186 $-1 #
-190 edge $-1 -1 $-1 $221 0 $193 0.0063508529610858842 $189 $222 forward @7 unknown #
-191 coedge $-1 -1 $-1 $223 $149 $155 $204 reversed $145 $-1 #
-192 coedge $-1 -1 $-1 $149 $223 $219 $224 forward $145 $-1 #
-193 vertex $-1 -1 $-1 $224 $225 #
-194 straight-curve $-1 -1 $-1 6.3508529610858853 1.9436954784347182e-015 50 -499.99999999999989 866.02540378443871 0 I I #
-195 coedge $-1 -1 $-1 $226 $227 $151 $196 forward $228 $-1 #
-196 edge $-1 -1 $-1 $200 0 $229 0.0063508529610858825 $195 $230 forward @7 unknown #
-197 coedge $-1 -1 $-1 $231 $152 $227 $232 reversed $199 $-1 #
-198 coedge $-1 -1 $-1 $152 $231 $154 $203 forward $199 $-1 #
-199 loop $-1 -1 $-1 $-1 $152 $233 #
-200 vertex $-1 -1 $-1 $232 $234 #
-201 straight-curve $-1 -1 $-1 -3.1754264805429426 5.5000000000000018 50 -500.00000000000011 -866.02540378443905 0 I I #
-202 coedge $-1 -1 $-1 $155 $154 $235 $236 reversed $93 $-1 #
-203 edge $-1 -1 $-1 $237 0 $157 0.014999999999999999 $198 $238 forward @7 unknown #
-204 edge $-1 -1 $-1 $239 0 $156 0.014999999999999999 $155 $240 forward @7 unknown #
-205 point $-1 -1 $-1 3.1754264805429444 5.5000000000000018 50 #
-206 point $-1 -1 $-1 -3.175426480542944 5.5000000000000018 50 #
-207 point $-1 -1 $-1 -12.5 0 0 #
-208 ellipse-curve $-1 -1 $-1 0 0 0 0 0 1 12.5 0 0 1 I I #
-209 straight-curve $-1 -1 $-1 3.4999999999999978 8 7.4999999999999982 0 1000 0 I I #
-210 integer_attrib-name_attrib-gen-attrib $-1 -1 $-1 $-1 $169 copy keep_kept ignore copy @18 Taglio-Estrusione3 0 #
-211 cone-surface $-1 -1 $-1 -2.5925385772168025e-015 8 7.5 0 1 0 0 0 3.5000000000000013 1 I I 0 1 3.5000000000000013 forward I I I I #
-212 point $-1 -1 $-1 -3.500000000000004 8 7.5000000000000018 #
-213 integer_attrib-name_attrib-gen-attrib $-1 -1 $-1 $-1 $185 copy keep_kept ignore copy @18 Taglio-Estrusione3 0 #
-214 face $241 -1 $-1 $233 $228 $4 $-1 $242 reversed single #
-215 loop $-1 -1 $-1 $-1 $217 $185 #
-216 plane-surface $-1 -1 $-1 -3.175426480542944 -5.5 35 0 -1 0 0 0 -1000 forward_v I I I I #
-217 coedge $-1 -1 $-1 $243 $244 $188 $218 forward $215 $-1 #
-218 edge $-1 -1 $-1 $229 0 $221 0.0063508529610858842 $217 $245 forward @7 unknown #
-219 coedge $-1 -1 $-1 $246 $189 $192 $224 reversed $186 $-1 #
-220 coedge $-1 -1 $-1 $189 $246 $243 $247 forward $186 $-1 #
-221 vertex $-1 -1 $-1 $247 $248 #
-222 straight-curve $-1 -1 $-1 3.1754264805429409 -5.5 50 500.00000000000045 866.02540378443894 0 I I #
-223 coedge $-1 -1 $-1 $192 $191 $249 $250 reversed $145 $-1 #
-224 edge $-1 -1 $-1 $251 0 $193 0.014999999999999999 $192 $252 forward @7 unknown #
-225 point $-1 -1 $-1 6.3508529610858853 1.9436954784347182e-015 50 #
-226 coedge $-1 -1 $-1 $253 $195 $244 $254 reversed $228 $-1 #
-227 coedge $-1 -1 $-1 $195 $253 $197 $232 forward $228 $-1 #
-228 loop $-1 -1 $-1 $-1 $195 $214 #
-229 vertex $-1 -1 $-1 $254 $255 #
-230 straight-curve $-1 -1 $-1 -6.3508529610858844 -1.2999701667954865e-016 50 499.99999999999983 -866.02540378443871 0 I I #
-231 coedge $-1 -1 $-1 $198 $197 $256 $257 reversed $199 $-1 #
-232 edge $-1 -1 $-1 $258 0 $200 0.014999999999999999 $227 $259 forward @7 unknown #
-233 face $260 -1 $-1 $261 $199 $4 $-1 $262 reversed single #
-234 point $-1 -1 $-1 -6.3508529610858844 -1.2999701667954865e-016 50 #
-235 coedge $-1 -1 $-1 $256 $249 $202 $236 forward $263 $-1 #
-236 edge $-1 -1 $-1 $239 0 $237 0.0063508529610858868 $235 $264 forward @7 unknown #
-237 vertex $-1 -1 $-1 $203 $265 #
-238 straight-curve $-1 -1 $-1 -3.1754264805429426 5.5000000000000018 35 0 0 1000 I I #
-239 vertex $-1 -1 $-1 $204 $266 #
-240 straight-curve $-1 -1 $-1 3.1754264805429444 5.5000000000000018 35 0 0 1000 I I #
-241 integer_attrib-name_attrib-gen-attrib $-1 -1 $-1 $-1 $214 copy keep_kept ignore copy @18 Taglio-Estrusione3 0 #
-242 plane-surface $-1 -1 $-1 -6.3508529610858844 -1.2999701667954865e-016 35 -0.86602540378443871 -0.49999999999999983 0 499.99999999999983 -866.02540378443871 0 forward_v I I I I #
-243 coedge $-1 -1 $-1 $267 $217 $220 $247 reversed $215 $-1 #
-244 coedge $-1 -1 $-1 $217 $267 $226 $254 forward $215 $-1 #
-245 straight-curve $-1 -1 $-1 -3.175426480542944 -5.5 50 1000 0 0 I I #
-246 coedge $-1 -1 $-1 $220 $219 $268 $269 reversed $186 $-1 #
-247 edge $-1 -1 $-1 $270 0 $221 0.014999999999999999 $220 $271 forward @7 unknown #
-248 point $-1 -1 $-1 3.1754264805429409 -5.5 50 #
-249 coedge $-1 -1 $-1 $235 $268 $223 $250 forward $263 $-1 #
-250 edge $-1 -1 $-1 $251 0 $239 0.0063508529610858833 $249 $272 forward @7 unknown #
-251 vertex $-1 -1 $-1 $224 $273 #
-252 straight-curve $-1 -1 $-1 6.3508529610858853 1.9436954784347182e-015 35 0 0 1000 I I #
-253 coedge $-1 -1 $-1 $227 $226 $274 $275 reversed $228 $-1 #
-254 edge $-1 -1 $-1 $276 0 $229 0.014999999999999999 $244 $277 forward @7 unknown #
-255 point $-1 -1 $-1 -3.175426480542944 -5.5 50 #
-256 coedge $-1 -1 $-1 $274 $235 $231 $257 forward $263 $-1 #
-257 edge $-1 -1 $-1 $237 0 $258 0.0063508529610858816 $256 $278 forward @7 unknown #
-258 vertex $-1 -1 $-1 $232 $279 #
-259 straight-curve $-1 -1 $-1 -6.3508529610858844 -1.2999701667954865e-016 35 0 0 1000 I I #
-260 integer_attrib-name_attrib-gen-attrib $-1 -1 $-1 $-1 $233 copy keep_kept ignore copy @18 Taglio-Estrusione3 0 #
-261 face $280 -1 $-1 $169 $263 $4 $-1 $281 forward single #
-262 plane-surface $-1 -1 $-1 -3.1754264805429426 5.5000000000000018 35 -0.86602540378443871 0.49999999999999994 0 -500 -866.02540378443882 0 forward_v I I I I #
-263 loop $-1 -1 $-1 $-1 $235 $261 #
-264 straight-curve $-1 -1 $-1 3.1754264805429444 5.5000000000000018 35 -1000 0 0 I I #
-265 point $-1 -1 $-1 -3.1754264805429426 5.5000000000000018 35 #
-266 point $-1 -1 $-1 3.1754264805429444 5.5000000000000018 35 #
-267 coedge $-1 -1 $-1 $244 $243 $282 $283 reversed $215 $-1 #
-268 coedge $-1 -1 $-1 $249 $282 $246 $269 forward $263 $-1 #
-269 edge $-1 -1 $-1 $270 0 $251 0.0063508529610858842 $268 $284 forward @7 unknown #
-270 vertex $-1 -1 $-1 $247 $285 #
-271 straight-curve $-1 -1 $-1 3.1754264805429409 -5.5 35 0 0 1000 I I #
-272 straight-curve $-1 -1 $-1 6.3508529610858853 1.9436954784347182e-015 35 -499.99999999999989 866.02540378443871 0 I I #
-273 point $-1 -1 $-1 6.3508529610858853 1.9436954784347182e-015 35 #
-274 coedge $-1 -1 $-1 $282 $256 $253 $275 forward $263 $-1 #
-275 edge $-1 -1 $-1 $258 0 $276 0.0063508529610858825 $274 $286 forward @7 unknown #
-276 vertex $-1 -1 $-1 $254 $287 #
-277 straight-curve $-1 -1 $-1 -3.175426480542944 -5.5 35 0 0 1000 I I #
-278 straight-curve $-1 -1 $-1 -3.1754264805429426 5.5000000000000018 35 -500.00000000000011 -866.02540378443905 0 I I #
-279 point $-1 -1 $-1 -6.3508529610858844 -1.2999701667954865e-016 35 #
-280 integer_attrib-name_attrib-gen-attrib $-1 -1 $-1 $-1 $261 copy keep_kept ignore copy @18 Taglio-Estrusione3 0 #
-281 plane-surface $-1 -1 $-1 -3.1754264805429431 5.5000000000000009 35 0 0 1 1000 0 0 forward_v I I I I #
-282 coedge $-1 -1 $-1 $268 $274 $267 $283 forward $263 $-1 #
-283 edge $-1 -1 $-1 $276 0 $270 0.0063508529610858842 $282 $288 forward @7 unknown #
-284 straight-curve $-1 -1 $-1 3.1754264805429409 -5.5 35 500.00000000000045 866.02540378443894 0 I I #
-285 point $-1 -1 $-1 3.1754264805429409 -5.5 35 #
-286 straight-curve $-1 -1 $-1 -6.3508529610858844 -1.2999701667954865e-016 35 499.99999999999983 -866.02540378443871 0 I I #
-287 point $-1 -1 $-1 -3.175426480542944 -5.5 35 #
-288 straight-curve $-1 -1 $-1 -3.175426480542944 -5.5 35 1000 0 0 I I #
End-of-ACIS-data 